{
    "asset" : {
        "generator" : "Khronos glTF Blender I/O v1.8.19",
        "version" : "2.0"
    },
    "scene" : 0,
    "scenes" : [
        {
            "name" : "Scene",
            "nodes" : [
                0
            ]
        }
    ],
    "nodes" : [
        {
            "mesh" : 0,
            "name" : "MotoBody"
        }
    ],
    "materials" : [
        {
            "doubleSided" : true,
            "name" : "MaterialYellow",
            "pbrMetallicRoughness" : {
                "baseColorFactor" : [
                    0.9740144610404968,
                    1,
                    0.7843610644340515,
                    1
                ],
                "metallicFactor" : 0,
                "roughnessFactor" : 0.5
            }
        },
        {
            "doubleSided" : true,
            "name" : "MaterialSite",
            "pbrMetallicRoughness" : {
                "baseColorFactor" : [
                    0.8000000715255737,
                    0.27225372195243835,
                    0.08933830261230469,
                    1
                ],
                "metallicFactor" : 0.25,
                "roughnessFactor" : 0.3863636255264282
            }
        },
        {
            "doubleSided" : true,
            "name" : "MaterialAqua",
            "pbrMetallicRoughness" : {
                "baseColorFactor" : [
                    0.22385558485984802,
                    0.5389849543571472,
                    1,
                    1
                ],
                "metallicFactor" : 0,
                "roughnessFactor" : 0.5
            }
        },
        {
            "doubleSided" : true,
            "name" : "Material.001",
            "pbrMetallicRoughness" : {
                "baseColorFactor" : [
                    0,
                    0,
                    0,
                    1
                ],
                "metallicFactor" : 0,
                "roughnessFactor" : 0.5
            }
        },
        {
            "doubleSided" : true,
            "name" : "MaterialRed",
            "pbrMetallicRoughness" : {
                "baseColorFactor" : [
                    0.9258288741111755,
                    0.0030317779164761305,
                    0,
                    1
                ],
                "metallicFactor" : 0,
                "roughnessFactor" : 0.5
            }
        },
        {
            "doubleSided" : true,
            "name" : "MaterialSilver",
            "pbrMetallicRoughness" : {
                "baseColorFactor" : [
                    0.800000011920929,
                    0.800000011920929,
                    0.800000011920929,
                    1
                ],
                "metallicFactor" : 0,
                "roughnessFactor" : 0.5
            }
        },
        {
            "doubleSided" : true,
            "name" : "MaterialLight",
            "pbrMetallicRoughness" : {
                "baseColorFactor" : [
                    0.8000000715255737,
                    0.7241808772087097,
                    0.0852242037653923,
                    1
                ],
                "metallicFactor" : 0,
                "roughnessFactor" : 0.5
            }
        }
    ],
    "meshes" : [
        {
            "name" : "bike",
            "primitives" : [
                {
                    "attributes" : {
                        "POSITION" : 0,
                        "NORMAL" : 1,
                        "TEXCOORD_0" : 2
                    },
                    "indices" : 3,
                    "material" : 0
                },
                {
                    "attributes" : {
                        "POSITION" : 4,
                        "NORMAL" : 5,
                        "TEXCOORD_0" : 6
                    },
                    "indices" : 7,
                    "material" : 1
                },
                {
                    "attributes" : {
                        "POSITION" : 8,
                        "NORMAL" : 9,
                        "TEXCOORD_0" : 10
                    },
                    "indices" : 11,
                    "material" : 2
                },
                {
                    "attributes" : {
                        "POSITION" : 12,
                        "NORMAL" : 13,
                        "TEXCOORD_0" : 14
                    },
                    "indices" : 15,
                    "material" : 3
                },
                {
                    "attributes" : {
                        "POSITION" : 16,
                        "NORMAL" : 17,
                        "TEXCOORD_0" : 18
                    },
                    "indices" : 19,
                    "material" : 4
                },
                {
                    "attributes" : {
                        "POSITION" : 20,
                        "NORMAL" : 21,
                        "TEXCOORD_0" : 22
                    },
                    "indices" : 23,
                    "material" : 5
                },
                {
                    "attributes" : {
                        "POSITION" : 24,
                        "NORMAL" : 25,
                        "TEXCOORD_0" : 26
                    },
                    "indices" : 27,
                    "material" : 6
                }
            ]
        }
    ],
    "accessors" : [
        {
            "bufferView" : 0,
            "componentType" : 5126,
            "count" : 953,
            "max" : [
                0.21635937690734863,
                0.741133987903595,
                0.6124702095985413
            ],
            "min" : [
                -0.21635937690734863,
                0.05172548443078995,
                -0.6595183610916138
            ],
            "type" : "VEC3"
        },
        {
            "bufferView" : 1,
            "componentType" : 5126,
            "count" : 953,
            "type" : "VEC3"
        },
        {
            "bufferView" : 2,
            "componentType" : 5126,
            "count" : 953,
            "type" : "VEC2"
        },
        {
            "bufferView" : 3,
            "componentType" : 5123,
            "count" : 1572,
            "type" : "SCALAR"
        },
        {
            "bufferView" : 4,
            "componentType" : 5126,
            "count" : 88,
            "max" : [
                0.11450592428445816,
                0.8887670040130615,
                -0.10046844929456711
            ],
            "min" : [
                -0.11450592428445816,
                0.5469745993614197,
                -0.604482114315033
            ],
            "type" : "VEC3"
        },
        {
            "bufferView" : 5,
            "componentType" : 5126,
            "count" : 88,
            "type" : "VEC3"
        },
        {
            "bufferView" : 6,
            "componentType" : 5126,
            "count" : 88,
            "type" : "VEC2"
        },
        {
            "bufferView" : 7,
            "componentType" : 5123,
            "count" : 162,
            "type" : "SCALAR"
        },
        {
            "bufferView" : 8,
            "componentType" : 5126,
            "count" : 658,
            "max" : [
                0.21635937690734863,
                0.8422129154205322,
                0.4652467966079712
            ],
            "min" : [
                -0.21635937690734863,
                0.14168593287467957,
                -0.6344035863876343
            ],
            "type" : "VEC3"
        },
        {
            "bufferView" : 9,
            "componentType" : 5126,
            "count" : 658,
            "type" : "VEC3"
        },
        {
            "bufferView" : 10,
            "componentType" : 5126,
            "count" : 658,
            "type" : "VEC2"
        },
        {
            "bufferView" : 11,
            "componentType" : 5123,
            "count" : 1050,
            "type" : "SCALAR"
        },
        {
            "bufferView" : 12,
            "componentType" : 5126,
            "count" : 4644,
            "max" : [
                0.1655629575252533,
                0.8920652866363525,
                0.6250588893890381
            ],
            "min" : [
                -0.1625596284866333,
                0.005316779017448425,
                -0.6871265769004822
            ],
            "type" : "VEC3"
        },
        {
            "bufferView" : 13,
            "componentType" : 5126,
            "count" : 4644,
            "type" : "VEC3"
        },
        {
            "bufferView" : 14,
            "componentType" : 5126,
            "count" : 4644,
            "type" : "VEC2"
        },
        {
            "bufferView" : 15,
            "componentType" : 5123,
            "count" : 6966,
            "type" : "SCALAR"
        },
        {
            "bufferView" : 16,
            "componentType" : 5126,
            "count" : 30,
            "max" : [
                0.0476132370531559,
                0.42030176520347595,
                -0.6464775204658508
            ],
            "min" : [
                -0.0476132370531559,
                0.36715400218963623,
                -0.6600821614265442
            ],
            "type" : "VEC3"
        },
        {
            "bufferView" : 17,
            "componentType" : 5126,
            "count" : 30,
            "type" : "VEC3"
        },
        {
            "bufferView" : 18,
            "componentType" : 5126,
            "count" : 30,
            "type" : "VEC2"
        },
        {
            "bufferView" : 19,
            "componentType" : 5123,
            "count" : 48,
            "type" : "SCALAR"
        },
        {
            "bufferView" : 20,
            "componentType" : 5126,
            "count" : 1778,
            "max" : [
                0.2441709190607071,
                0.8865919709205627,
                0.584022581577301
            ],
            "min" : [
                -0.2441709339618683,
                0.10199479013681412,
                -0.7211338877677917
            ],
            "type" : "VEC3"
        },
        {
            "bufferView" : 21,
            "componentType" : 5126,
            "count" : 1778,
            "type" : "VEC3"
        },
        {
            "bufferView" : 22,
            "componentType" : 5126,
            "count" : 1778,
            "type" : "VEC2"
        },
        {
            "bufferView" : 23,
            "componentType" : 5123,
            "count" : 2904,
            "type" : "SCALAR"
        },
        {
            "bufferView" : 24,
            "componentType" : 5126,
            "count" : 26,
            "max" : [
                0.05886441469192505,
                0.8422129154205322,
                0.26681095361709595
            ],
            "min" : [
                -0.05886441469192505,
                0.7810319662094116,
                0.25773942470550537
            ],
            "type" : "VEC3"
        },
        {
            "bufferView" : 25,
            "componentType" : 5126,
            "count" : 26,
            "type" : "VEC3"
        },
        {
            "bufferView" : 26,
            "componentType" : 5126,
            "count" : 26,
            "type" : "VEC2"
        },
        {
            "bufferView" : 27,
            "componentType" : 5123,
            "count" : 48,
            "type" : "SCALAR"
        }
    ],
    "bufferViews" : [
        {
            "buffer" : 0,
            "byteLength" : 11436,
            "byteOffset" : 0
        },
        {
            "buffer" : 0,
            "byteLength" : 11436,
            "byteOffset" : 11436
        },
        {
            "buffer" : 0,
            "byteLength" : 7624,
            "byteOffset" : 22872
        },
        {
            "buffer" : 0,
            "byteLength" : 3144,
            "byteOffset" : 30496
        },
        {
            "buffer" : 0,
            "byteLength" : 1056,
            "byteOffset" : 33640
        },
        {
            "buffer" : 0,
            "byteLength" : 1056,
            "byteOffset" : 34696
        },
        {
            "buffer" : 0,
            "byteLength" : 704,
            "byteOffset" : 35752
        },
        {
            "buffer" : 0,
            "byteLength" : 324,
            "byteOffset" : 36456
        },
        {
            "buffer" : 0,
            "byteLength" : 7896,
            "byteOffset" : 36780
        },
        {
            "buffer" : 0,
            "byteLength" : 7896,
            "byteOffset" : 44676
        },
        {
            "buffer" : 0,
            "byteLength" : 5264,
            "byteOffset" : 52572
        },
        {
            "buffer" : 0,
            "byteLength" : 2100,
            "byteOffset" : 57836
        },
        {
            "buffer" : 0,
            "byteLength" : 55728,
            "byteOffset" : 59936
        },
        {
            "buffer" : 0,
            "byteLength" : 55728,
            "byteOffset" : 115664
        },
        {
            "buffer" : 0,
            "byteLength" : 37152,
            "byteOffset" : 171392
        },
        {
            "buffer" : 0,
            "byteLength" : 13932,
            "byteOffset" : 208544
        },
        {
            "buffer" : 0,
            "byteLength" : 360,
            "byteOffset" : 222476
        },
        {
            "buffer" : 0,
            "byteLength" : 360,
            "byteOffset" : 222836
        },
        {
            "buffer" : 0,
            "byteLength" : 240,
            "byteOffset" : 223196
        },
        {
            "buffer" : 0,
            "byteLength" : 96,
            "byteOffset" : 223436
        },
        {
            "buffer" : 0,
            "byteLength" : 21336,
            "byteOffset" : 223532
        },
        {
            "buffer" : 0,
            "byteLength" : 21336,
            "byteOffset" : 244868
        },
        {
            "buffer" : 0,
            "byteLength" : 14224,
            "byteOffset" : 266204
        },
        {
            "buffer" : 0,
            "byteLength" : 5808,
            "byteOffset" : 280428
        },
        {
            "buffer" : 0,
            "byteLength" : 312,
            "byteOffset" : 286236
        },
        {
            "buffer" : 0,
            "byteLength" : 312,
            "byteOffset" : 286548
        },
        {
            "buffer" : 0,
            "byteLength" : 208,
            "byteOffset" : 286860
        },
        {
            "buffer" : 0,
            "byteLength" : 96,
            "byteOffset" : 287068
        }
    ],
    "buffers" : [
        {
            "byteLength" : 287164,
            "uri" : "data:application/octet-stream;base64,"
        }
    ]
}
