{
    "asset" : {
        "generator" : "Khronos glTF Blender I/O v1.8.19",
        "version" : "2.0"
    },
    "scene" : 0,
    "scenes" : [
        {
            "name" : "Scene",
            "nodes" : [
                15
            ]
        }
    ],
    "nodes" : [
        {
            "name" : "Bone.Left.004",
            "rotation" : [
                0.08972939103841782,
                -0.00448560668155551,
                -0.2261391580104828,
                0.969943106174469
            ],
            "scale" : [
                1.0000003576278687,
                1,
                1
            ],
            "translation" : [
                3.160564432391766e-08,
                0.6903784871101379,
                2.862432211259147e-07
            ]
        },
        {
            "children" : [
                0
            ],
            "name" : "Bone.Left.003",
            "rotation" : [
                0.2832651734352112,
                -0.004349797498434782,
                -0.33034783601760864,
                0.9003400802612305
            ],
            "scale" : [
                0.9999997019767761,
                0.9999998807907104,
                1
            ],
            "translation" : [
                3.390792713275914e-08,
                0.5918735265731812,
                -5.571225258904633e-08
            ]
        },
        {
            "children" : [
                1
            ],
            "name" : "Bone.Left.002",
            "rotation" : [
                -0.24939027428627014,
                0.017205549404025078,
                0.20741941034793854,
                0.9457725286483765
            ],
            "scale" : [
                1.0000004768371582,
                1,
                1.0000003576278687
            ],
            "translation" : [
                1.459628862221507e-09,
                0.5047739744186401,
                -5.838334260488409e-08
            ]
        },
        {
            "children" : [
                2
            ],
            "name" : "Bone.Left.001",
            "rotation" : [
                -0.5835691094398499,
                -0.3993082046508789,
                -0.5835692882537842,
                0.3993082046508789
            ],
            "scale" : [
                1.000000238418579,
                1.0000001192092896,
                1.0000001192092896
            ],
            "translation" : [
                0.39216557145118713,
                0.2563931941986084,
                -4.742178205674463e-09
            ]
        },
        {
            "name" : "Bone.Right.004",
            "rotation" : [
                0.08972945064306259,
                0.004485624376684427,
                0.22614005208015442,
                0.9699428677558899
            ],
            "scale" : [
                1.0000003576278687,
                0.9999999403953552,
                1
            ],
            "translation" : [
                -1.2734115273360658e-07,
                0.6903786063194275,
                2.8611694347091543e-07
            ]
        },
        {
            "children" : [
                4
            ],
            "name" : "Bone.Right.003",
            "rotation" : [
                0.28326529264450073,
                0.004349812865257263,
                0.330349326133728,
                0.9003394842147827
            ],
            "scale" : [
                0.9999998807907104,
                1,
                1.0000001192092896
            ],
            "translation" : [
                -2.232384943567922e-09,
                0.5918734669685364,
                6.119250883784844e-08
            ]
        },
        {
            "children" : [
                5
            ],
            "name" : "Bone.Right.002",
            "rotation" : [
                -0.24939055740833282,
                -0.017205674201250076,
                -0.2074204832315445,
                0.9457722306251526
            ],
            "scale" : [
                1.000000238418579,
                0.9999999403953552,
                1.000000238418579
            ],
            "translation" : [
                -1.4596324149351858e-09,
                0.5047739744186401,
                -5.838334260488409e-08
            ]
        },
        {
            "children" : [
                6
            ],
            "name" : "Bone.Right.001",
            "rotation" : [
                -0.5835691094398499,
                0.3993082046508789,
                0.5835692882537842,
                0.3993082046508789
            ],
            "scale" : [
                1.000000238418579,
                1.0000001192092896,
                1.0000001192092896
            ],
            "translation" : [
                -0.39216557145118713,
                0.2563931941986084,
                -4.742196857421277e-09
            ]
        },
        {
            "name" : "Bone.head",
            "rotation" : [
                -3.552713678800501e-15,
                -4.2351642314005224e-22,
                6.018531076210112e-36,
                1
            ],
            "scale" : [
                1,
                0.9999999403953552,
                0.9999999403953552
            ],
            "translation" : [
                -4.627171584260792e-15,
                0.5191444158554077,
                1.3602593185169098e-07
            ]
        },
        {
            "children" : [
                3,
                7,
                8
            ],
            "name" : "Bone.003",
            "rotation" : [
                -3.552713678800501e-15,
                -1.6940658945086007e-21,
                6.018531076210112e-36,
                1
            ],
            "scale" : [
                1,
                0.9999999403953552,
                0.9999999403953552
            ],
            "translation" : [
                0,
                0.3463796377182007,
                0
            ]
        },
        {
            "children" : [
                9
            ],
            "name" : "Bone.002",
            "rotation" : [
                -3.552713678800501e-15,
                7.105428204633949e-15,
                1.0097419586828951e-28,
                1
            ],
            "scale" : [
                1,
                0.9999999403953552,
                0.9999999403953552
            ],
            "translation" : [
                0,
                0.39924806356430054,
                0
            ]
        },
        {
            "children" : [
                10
            ],
            "name" : "Bone.001",
            "rotation" : [
                -3.552713678800501e-15,
                -1.1920927533992653e-07,
                5.048709793414476e-29,
                1
            ],
            "scale" : [
                1,
                0.9999999403953552,
                0.9999999403953552
            ],
            "translation" : [
                0,
                0.4804306626319885,
                0
            ]
        },
        {
            "children" : [
                11
            ],
            "name" : "Bone",
            "rotation" : [
                -2.9802322387695312e-08,
                1.1920927533992653e-07,
                4.235164736271502e-22,
                1
            ],
            "scale" : [
                1,
                0.9999998807907104,
                0.9999998807907104
            ]
        },
        {
            "mesh" : 0,
            "name" : "Sphere",
            "skin" : 0
        },
        {
            "children" : [
                13,
                12
            ],
            "name" : "Armature",
            "translation" : [
                0,
                0.3172107934951782,
                0
            ]
        },
        {
            "children" : [
                14
            ],
            "name" : "Root"
        }
    ],
    "animations" : [
        {
            "channels" : [
                {
                    "sampler" : 0,
                    "target" : {
                        "node" : 12,
                        "path" : "rotation"
                    }
                },
                {
                    "sampler" : 1,
                    "target" : {
                        "node" : 11,
                        "path" : "rotation"
                    }
                },
                {
                    "sampler" : 2,
                    "target" : {
                        "node" : 10,
                        "path" : "rotation"
                    }
                },
                {
                    "sampler" : 3,
                    "target" : {
                        "node" : 9,
                        "path" : "rotation"
                    }
                },
                {
                    "sampler" : 4,
                    "target" : {
                        "node" : 2,
                        "path" : "rotation"
                    }
                },
                {
                    "sampler" : 5,
                    "target" : {
                        "node" : 1,
                        "path" : "rotation"
                    }
                },
                {
                    "sampler" : 6,
                    "target" : {
                        "node" : 0,
                        "path" : "rotation"
                    }
                },
                {
                    "sampler" : 7,
                    "target" : {
                        "node" : 6,
                        "path" : "rotation"
                    }
                },
                {
                    "sampler" : 8,
                    "target" : {
                        "node" : 5,
                        "path" : "rotation"
                    }
                },
                {
                    "sampler" : 9,
                    "target" : {
                        "node" : 4,
                        "path" : "rotation"
                    }
                },
                {
                    "sampler" : 10,
                    "target" : {
                        "node" : 8,
                        "path" : "rotation"
                    }
                }
            ],
            "name" : "ArmatureAction",
            "samplers" : [
                {
                    "input" : 7,
                    "interpolation" : "LINEAR",
                    "output" : 8
                },
                {
                    "input" : 7,
                    "interpolation" : "LINEAR",
                    "output" : 9
                },
                {
                    "input" : 7,
                    "interpolation" : "LINEAR",
                    "output" : 10
                },
                {
                    "input" : 7,
                    "interpolation" : "LINEAR",
                    "output" : 11
                },
                {
                    "input" : 7,
                    "interpolation" : "LINEAR",
                    "output" : 12
                },
                {
                    "input" : 7,
                    "interpolation" : "LINEAR",
                    "output" : 13
                },
                {
                    "input" : 7,
                    "interpolation" : "LINEAR",
                    "output" : 14
                },
                {
                    "input" : 7,
                    "interpolation" : "LINEAR",
                    "output" : 15
                },
                {
                    "input" : 7,
                    "interpolation" : "LINEAR",
                    "output" : 16
                },
                {
                    "input" : 7,
                    "interpolation" : "LINEAR",
                    "output" : 17
                },
                {
                    "input" : 7,
                    "interpolation" : "LINEAR",
                    "output" : 18
                }
            ]
        },
        {
            "channels" : [
                {
                    "sampler" : 0,
                    "target" : {
                        "node" : 15,
                        "path" : "translation"
                    }
                },
                {
                    "sampler" : 1,
                    "target" : {
                        "node" : 15,
                        "path" : "rotation"
                    }
                }
            ],
            "name" : "RootAction",
            "samplers" : [
                {
                    "input" : 19,
                    "interpolation" : "LINEAR",
                    "output" : 20
                },
                {
                    "input" : 19,
                    "interpolation" : "LINEAR",
                    "output" : 21
                }
            ]
        }
    ],
    "materials" : [
        {
            "doubleSided" : true,
            "name" : "Material",
            "pbrMetallicRoughness" : {
                "baseColorTexture" : {
                    "index" : 0
                },
                "metallicFactor" : 0,
                "roughnessFactor" : 0.5
            }
        }
    ],
    "meshes" : [
        {
            "name" : "Sphere.001",
            "primitives" : [
                {
                    "attributes" : {
                        "POSITION" : 0,
                        "NORMAL" : 1,
                        "TEXCOORD_0" : 2,
                        "JOINTS_0" : 3,
                        "WEIGHTS_0" : 4
                    },
                    "indices" : 5,
                    "material" : 0
                }
            ]
        }
    ],
    "textures" : [
        {
            "sampler" : 0,
            "source" : 0
        }
    ],
    "images" : [
        {
            "bufferView" : 6,
            "mimeType" : "image/png",
            "name" : "uv_E"
        }
    ],
    "skins" : [
        {
            "inverseBindMatrices" : 6,
            "joints" : [
                12,
                11,
                10,
                9,
                3,
                2,
                1,
                0,
                7,
                6,
                5,
                4,
                8
            ],
            "name" : "Armature"
        }
    ],
    "accessors" : [
        {
            "bufferView" : 0,
            "componentType" : 5126,
            "count" : 515,
            "max" : [
                2.372877359390259,
                3.3758792877197266,
                1.2118854522705078
            ],
            "min" : [
                -2.372877359390259,
                0.13153791427612305,
                -1.2523704767227173
            ],
            "type" : "VEC3"
        },
        {
            "bufferView" : 1,
            "componentType" : 5126,
            "count" : 515,
            "type" : "VEC3"
        },
        {
            "bufferView" : 2,
            "componentType" : 5126,
            "count" : 515,
            "type" : "VEC2"
        },
        {
            "bufferView" : 3,
            "componentType" : 5121,
            "count" : 515,
            "type" : "VEC4"
        },
        {
            "bufferView" : 4,
            "componentType" : 5126,
            "count" : 515,
            "type" : "VEC4"
        },
        {
            "bufferView" : 5,
            "componentType" : 5123,
            "count" : 2352,
            "type" : "SCALAR"
        },
        {
            "bufferView" : 7,
            "componentType" : 5126,
            "count" : 13,
            "type" : "MAT4"
        },
        {
            "bufferView" : 8,
            "componentType" : 5126,
            "count" : 46,
            "max" : [
                1.5
            ],
            "min" : [
                0
            ],
            "type" : "SCALAR"
        },
        {
            "bufferView" : 9,
            "componentType" : 5126,
            "count" : 46,
            "type" : "VEC4"
        },
        {
            "bufferView" : 10,
            "componentType" : 5126,
            "count" : 46,
            "type" : "VEC4"
        },
        {
            "bufferView" : 11,
            "componentType" : 5126,
            "count" : 46,
            "type" : "VEC4"
        },
        {
            "bufferView" : 12,
            "componentType" : 5126,
            "count" : 46,
            "type" : "VEC4"
        },
        {
            "bufferView" : 13,
            "componentType" : 5126,
            "count" : 46,
            "type" : "VEC4"
        },
        {
            "bufferView" : 14,
            "componentType" : 5126,
            "count" : 46,
            "type" : "VEC4"
        },
        {
            "bufferView" : 15,
            "componentType" : 5126,
            "count" : 46,
            "type" : "VEC4"
        },
        {
            "bufferView" : 16,
            "componentType" : 5126,
            "count" : 46,
            "type" : "VEC4"
        },
        {
            "bufferView" : 17,
            "componentType" : 5126,
            "count" : 46,
            "type" : "VEC4"
        },
        {
            "bufferView" : 18,
            "componentType" : 5126,
            "count" : 46,
            "type" : "VEC4"
        },
        {
            "bufferView" : 19,
            "componentType" : 5126,
            "count" : 46,
            "type" : "VEC4"
        },
        {
            "bufferView" : 20,
            "componentType" : 5126,
            "count" : 61,
            "max" : [
                2
            ],
            "min" : [
                0
            ],
            "type" : "SCALAR"
        },
        {
            "bufferView" : 21,
            "componentType" : 5126,
            "count" : 61,
            "type" : "VEC3"
        },
        {
            "bufferView" : 22,
            "componentType" : 5126,
            "count" : 61,
            "type" : "VEC4"
        }
    ],
    "bufferViews" : [
        {
            "buffer" : 0,
            "byteLength" : 6180,
            "byteOffset" : 0
        },
        {
            "buffer" : 0,
            "byteLength" : 6180,
            "byteOffset" : 6180
        },
        {
            "buffer" : 0,
            "byteLength" : 4120,
            "byteOffset" : 12360
        },
        {
            "buffer" : 0,
            "byteLength" : 2060,
            "byteOffset" : 16480
        },
        {
            "buffer" : 0,
            "byteLength" : 8240,
            "byteOffset" : 18540
        },
        {
            "buffer" : 0,
            "byteLength" : 4704,
            "byteOffset" : 26780
        },
        {
            "buffer" : 0,
            "byteLength" : 34111,
            "byteOffset" : 31484
        },
        {
            "buffer" : 0,
            "byteLength" : 832,
            "byteOffset" : 65596
        },
        {
            "buffer" : 0,
            "byteLength" : 184,
            "byteOffset" : 66428
        },
        {
            "buffer" : 0,
            "byteLength" : 736,
            "byteOffset" : 66612
        },
        {
            "buffer" : 0,
            "byteLength" : 736,
            "byteOffset" : 67348
        },
        {
            "buffer" : 0,
            "byteLength" : 736,
            "byteOffset" : 68084
        },
        {
            "buffer" : 0,
            "byteLength" : 736,
            "byteOffset" : 68820
        },
        {
            "buffer" : 0,
            "byteLength" : 736,
            "byteOffset" : 69556
        },
        {
            "buffer" : 0,
            "byteLength" : 736,
            "byteOffset" : 70292
        },
        {
            "buffer" : 0,
            "byteLength" : 736,
            "byteOffset" : 71028
        },
        {
            "buffer" : 0,
            "byteLength" : 736,
            "byteOffset" : 71764
        },
        {
            "buffer" : 0,
            "byteLength" : 736,
            "byteOffset" : 72500
        },
        {
            "buffer" : 0,
            "byteLength" : 736,
            "byteOffset" : 73236
        },
        {
            "buffer" : 0,
            "byteLength" : 736,
            "byteOffset" : 73972
        },
        {
            "buffer" : 0,
            "byteLength" : 244,
            "byteOffset" : 74708
        },
        {
            "buffer" : 0,
            "byteLength" : 732,
            "byteOffset" : 74952
        },
        {
            "buffer" : 0,
            "byteLength" : 976,
            "byteOffset" : 75684
        }
    ],
    "samplers" : [
        {
            "magFilter" : 9729,
            "minFilter" : 9987
        }
    ],
    "buffers" : [
        {
            "byteLength" : 76660,
            "uri" : "data:application/octet-stream;base64,"
        }
    ]
}
